<svg id="Layer_1" xmlns="http://www.w3.org/2000/svg" viewBox="0 0 49.1 55"><style>.st0{fill:#fdc831}.st1{fill:#fff}</style><path class="st0" d="M25.4 28.2v4.5L49.1 43v-4.5z"/><path class="st1" d="M16.2 41.9c-2.3-1-4.4-2.4-6.2-4.2-1.8-1.8-3.2-3.9-4.2-6.2-1-2.4-1.5-5-1.5-7.6 0-2.6.5-5.2 1.5-7.6 1-2.3 2.4-4.4 4.2-6.2 1.8-1.8 3.9-3.2 6.2-4.2 2.4-1 5-1.5 7.6-1.5s5.2.5 7.6 1.5c2.3 1 4.4 2.4 6.2 4.2 1.8 1.8 3.2 3.9 4.2 6.2 1 2.4 1.5 5 1.5 7.6 0 2.6-.5 5.2-1.5 7.6 0 .1 0 .1-.1.2 0 0 0 .1-.1.1v.2l3.9 1.7.1-.3c0-.1.1-.2.1-.3 1.2-3 1.9-6.1 1.9-9.3 0-3.2-.6-6.3-1.9-9.3-1.2-2.8-2.9-5.4-5.1-7.6C38.4 4.7 35.9 3 33 1.8 30.2.6 27 0 23.8 0c-3.2 0-6.3.6-9.3 1.9C11.7 3.1 9.2 4.8 7 7c-2.2 2.2-3.9 4.7-5.1 7.6-1.2 3-1.9 6.1-1.9 9.3 0 3.2.6 6.3 1.9 9.3C3.1 36 4.8 38.5 7 40.7c2.2 2.2 4.7 3.9 7.6 5.1 2.4 1 4.9 1.6 7.4 1.8h.3v-4.3h-.2c-2.1-.1-4-.6-5.9-1.4z"/><path class="st1" d="M11.6 23.8c0-6.7 5.5-12.2 12.2-12.2 3.3 0 6.3 1.3 8.6 3.6s3.6 5.4 3.6 8.6c0 1.7-.4 3.4-1.1 5l-.1.2 3.9 1.7.1-.2c.9-2.1 1.4-4.3 1.4-6.7 0-4.4-1.7-8.5-4.8-11.6-3.1-3.1-7.2-4.8-11.6-4.8-9.1 0-16.4 7.4-16.4 16.4 0 8.4 6.3 15.4 14.6 16.3h.3v-4.3h-.2c-6-.8-10.5-6-10.5-12z"/><path class="st0" d="M25.4 40.2l20.3 8.9v-4.4l-20.3-8.9zm0 7.4L42.3 55v-4.3l-16.9-7.4z"/><path class="st1" d="M32 27.8l.1-.2c.5-1.2.8-2.4.8-3.7 0-2.4-.9-4.7-2.6-6.4-1.7-1.7-4-2.6-6.4-2.6-5 0-9 4.1-9 9 0 4.2 3 7.9 7.1 8.8l.3.1v-4.4c-1.9-.7-3.2-2.4-3.2-4.5 0-2.7 2.1-4.8 4.8-4.8 2.7 0 4.8 2.1 4.8 4.8 0 .8-.2 1.6-.6 2.3l3.9 1.6z"/></svg>