<svg id="Layer_1" xmlns="http://www.w3.org/2000/svg" viewBox="0 0 571.6 110"><style>.st0{fill:#2e2e2d}.st1{fill:#fdc831}</style><path class="st0" d="M129.5 61.6c-3.3 0-6.1-1.1-8.3-3.3-2.2-2.2-3.4-5-3.4-8.4 0-3.4 1.1-6.2 3.4-8.4s5-3.3 8.3-3.3c3.3 0 6.1 1.1 8.3 3.3 2.2 2.2 3.4 5 3.4 8.4 0 3.4-1.1 6.2-3.4 8.4-2.2 2.2-5 3.3-8.3 3.3zm5.1-6.3c1.3-1.4 1.9-3.2 1.9-5.5s-.6-4.1-1.9-5.4c-1.3-1.4-3-2-5-2-2.1 0-3.8.7-5.1 2-1.3 1.4-1.9 3.2-1.9 5.4s.6 4.1 1.9 5.4c1.3 1.4 3 2 5.1 2 2 .2 3.7-.5 5-1.9zm21.6-12.1h4.6v18.1h-4.6v-2.8c-1.2 2-3 3-5.7 3-2.1 0-3.7-.7-5-2-1.3-1.4-2-3.3-2-5.7V43.2h4.6v10c0 1.4.4 2.5 1.1 3.3s1.7 1.1 2.9 1.1 2.2-.4 3-1.1c.7-.8 1.1-1.9 1.1-3.3v-10zm15.4 18.4c-2.6 0-4.8-.9-6.5-2.6-1.7-1.7-2.5-4-2.5-6.8s.8-5.1 2.5-6.8c1.7-1.7 3.8-2.5 6.5-2.5s4.8.8 6.5 2.5c1.7 1.6 2.6 3.8 2.6 6.6 0 .6 0 1.2-.1 1.8h-13.2c.1 1.2.5 2.1 1.3 2.8.8.7 1.7 1.1 2.9 1.1 1.6 0 2.8-.7 3.5-2h5c-.5 1.7-1.5 3.1-3 4.2-1.5 1.2-3.4 1.7-5.5 1.7zm3-13.6c-.8-.7-1.8-1.1-3-1.1s-2.1.4-2.9 1.1c-.8.7-1.2 1.7-1.4 2.9h8.6c0-1.3-.5-2.2-1.3-2.9zm8.3.5c0-1.6.7-2.9 2-4s3.1-1.6 5.3-1.6c2.2 0 4 .5 5.3 1.6 1.3 1.1 2 2.5 2.1 4.3h-4.7c-.1-1.5-1.1-2.3-2.8-2.3-.9 0-1.6.2-2 .5-.5.3-.7.8-.7 1.4 0 .6.4 1.1 1.1 1.4s1.6.6 2.6.8c1 .2 2 .4 3.1.7 1 .3 1.9.8 2.6 1.6.7.8 1.1 1.8 1.1 3 0 1.6-.7 3-2.1 4-1.4 1-3.2 1.5-5.3 1.5-2.2 0-3.9-.5-5.3-1.5s-2.1-2.5-2.3-4.4h4.7c.2 1.5 1.1 2.3 2.9 2.3.9 0 1.5-.2 2.1-.6.5-.4.8-.9.8-1.5s-.4-1.1-1.1-1.5c-.7-.4-1.6-.6-2.6-.8-1-.2-2-.4-3.1-.7-1-.3-1.9-.8-2.6-1.5-.8-.5-1.1-1.5-1.1-2.7zm24.7 9h2.2v3.9h-2.9c-1.9 0-3.3-.4-4.3-1.3s-1.5-2.3-1.5-4.2V47h-1.9v-3.8h1.9v-4.5h4.6v4.5h4.1V47h-4.1v8.9c0 .6.1 1 .4 1.3.3.2.8.3 1.5.3zm20.6.7c0 1.1.2 1.6 1.4 1.6h2.2v1.6h-10v-1.6h2.2c1.1 0 1.4-.5 1.4-1.6v-9.6c0-1.1-.2-1.6-1.4-1.6h-2.2v-1.6h6.5v12.8zm-1.9-16.1c-1 0-1.8-.8-1.8-1.8s.8-1.8 1.8-1.8 1.8.9 1.8 1.8c.1 1-.8 1.8-1.8 1.8zm13.3 6.2c1.5-2.2 2.8-3.5 5.6-3.5 2.3 0 4 1.4 4.5 3.5 1.5-2.2 3.2-3.5 5.7-3.5 4.6 0 5.2 3.1 5.2 7.4v5.9c0 1.1.2 1.6 1.4 1.6h2v1.6h-9.2v-1.6h1.6c1.1 0 1.4-.5 1.4-1.6v-8.3c0-2.1-1.2-3.1-3-3.1-2.5 0-4.6 2.7-4.6 4.9v6.5c0 1.1.2 1.6 1.4 1.6h1.6v1.6h-8.8v-1.6h1.6c1.1 0 1.4-.5 1.4-1.6v-7.9c0-2.1-1.1-3.5-3.1-3.5-2.6 0-4.6 2.8-4.6 4.9v6.5c0 1.1.2 1.6 1.4 1.6h1.5v1.6h-9.4v-1.6h2.2c1.1 0 1.4-.5 1.4-1.6v-9.6c0-1.1-.2-1.6-1.4-1.6h-2.2v-1.6h6.5v3zm31.1.1c1.3-2.3 3-3.5 5.7-3.5 5 0 7.3 4.1 7.3 8.4 0 4.5-2.3 8.6-7.3 8.6-2.9 0-4.5-1.3-5.7-3.2h-.1v6.6c0 1.1.5 1.7 1.5 1.7h1.9v1.6h-9.6V67h1.7c1.1 0 1.5-.6 1.5-1.7V48.8c0-1.1-.4-1.8-1.6-1.8h-1.7v-1.6h6.2v3zm9.8 5c0-4.2-1.5-6.6-4.5-6.6-3.6 0-5.2 3.2-5.2 6.6s1.4 6.6 4.9 6.6 4.8-3.2 4.8-6.6zm19.7 5.1c0 1 .3 1.8.9 1.8 1.5 0 1.6-1.9 1.6-2.9V56h1.6v1c0 3.6-1.2 5-3.8 5-1.7 0-2.7-1-3-2.7-1.7 1.8-3.6 2.7-6 2.7-2.8 0-5-1.2-5-4.3 0-4.4 6.2-4.4 9.6-6 1.1-.5 1.3-1.2 1.3-2.2 0-1.9-.9-2.9-3.8-2.9-1.3 0-3 .2-4 1.3 1 .2 1.6.7 1.6 1.7 0 1.3-1.1 1.8-2.1 1.8-1.2 0-1.8-1.1-1.8-2.4 0-2.9 3.9-4.1 6.5-4.1 3.9 0 6.5 1.2 6.5 5.6v8zm-2.9-5.8c-1.5.9-3 1.2-5.1 2.1-1.8.8-2.6 1.5-2.6 2.7 0 1.8 1 2.8 2.7 2.8 2.3 0 5-2.1 5-4.5v-3.1zm23.2 2.8c-.5 4.6-3.3 6.4-7.8 6.4-4.2 0-7.5-2.8-7.5-8.5 0-5.1 3.6-8.5 8.5-8.5 3 0 6.9 1.6 6.9 5.1 0 1.4-.8 2.4-2.2 2.4-.9 0-1.7-.7-1.7-1.6 0-1.2.6-1.8 1.7-1.9-.5-1.7-2.8-2.3-4.3-2.3-4.3 0-5.7 3.8-5.7 6.9s1.4 6.9 5.1 6.9c2.7 0 4.4-1.9 5-4.8h2zm2.1-10.1c3.2-.4 3.8-3.9 4-6.7h1.8v6.7h4.9V47h-4.9v11.3c0 1.4.5 2 1.7 2 1.4 0 2.4-1.4 2.4-3.3v-2h1.6v1.5c0 3.3-1 5.5-4.6 5.5-3 0-4-2-4-3.9V47h-2.9v-1.6zm36.9 12.9c-1.3 2.3-2.7 3.6-5.7 3.6-5.1 0-7.4-4.3-7.4-8.5s2.3-8.5 7.4-8.5c2.2 0 4.5 1.2 5.7 3.4h.1v-6c0-1.1-.4-1.9-1.6-1.9h-1.8v-1.6h6.3v19.8c0 .8.5 1.2 1.3 1.2h2v1.6h-6.2v-3.1zm-9.9-4.9c0 3.9 1.4 6.6 4.5 6.6 3.9 0 5.3-3.2 5.3-6.6s-1.4-6.6-4.9-6.6-4.9 3.2-4.9 6.6zm20.7.2c0 3.5.8 6.7 4.8 6.7 2.7 0 4.4-1.4 5.1-4.1h2c-.8 3.7-3.1 5.7-7.1 5.7-5.1 0-8-2.9-8-8.5s2.9-8.5 8-8.5c5.5 0 7.3 3.9 7.6 8.7h-12.4zm9.1-1.6c0-3-1.3-5.5-4.4-5.5-3.2 0-4.6 2.5-4.6 5.5h9zm7 2.9c.5 3.2 3.1 5.4 6.4 5.4 2.1 0 3.6-1 3.6-2.7 0-4.4-11.5-1-11.5-8 0-3.4 3.1-4.7 6.1-4.7 1.9 0 3.9.7 5.3 1.9l.6-1.6h1.5v6.3h-1.6c-.4-3-3-5-5.8-5-1.5 0-3.2.5-3.2 2.7 0 4.1 11.5 1 11.5 7.7 0 3.6-3.2 5-6.4 5-2.1 0-4.2-.6-5.8-2.1l-.6 1.8h-1.8V55h1.7zm21.2 3.3c0 1.1.2 1.6 1.4 1.6h2.2v1.6h-10v-1.6h2.2c1.1 0 1.4-.5 1.4-1.6v-9.6c0-1.1-.2-1.6-1.4-1.6h-2.2v-1.6h6.5v12.8zm-1.9-16.1c-1 0-1.8-.8-1.8-1.8s.8-1.8 1.8-1.8 1.8.9 1.8 1.8c0 1-.8 1.8-1.8 1.8zM424 59.5c5.1 0 7 1.5 7 4.3 0 3.2-3.2 4.9-9.1 4.9-5.5 0-8.6-1.2-8.6-4 0-2.2 1.9-2.9 3.6-3v-.1c-1.6 0-3-1.1-3-2.8s1.4-3 3-3.3c-1.7-1-2.4-2.9-2.4-4.8 0-4.2 3.8-5.9 7.5-5.9 2 0 4 .7 5.5 1.9.9-1.1 2.1-1.9 3.5-1.9 1.9 0 3.3 1.1 3.3 3 0 1.3-.6 2.2-2 2.2-1 0-1.6-.7-1.6-1.6 0-1 .7-1.4 1.6-1.4-.3-.4-.9-.5-1.5-.5-.9 0-2 .7-2.5 1.4.5 1 1 2.2 1 3.7 0 2.7-2.8 5.5-7.2 5.5-2.8 0-3.2-.6-3.8-.6-.9 0-1.8.8-1.8 1.7 0 1 .9 1.4 1.9 1.4h5.6zm-4.1 2.5c-2 0-4.1.9-4.1 2.4 0 2.3 3 2.6 6.5 2.6 3.4 0 6.2-.9 6.2-2.5 0-1.8-1.2-2.5-3.4-2.5h-5.2zm-2.2-11.1c0 2.6 1.2 4.4 4.1 4.4s4.1-1.8 4.1-4.4-1.2-4.5-4.1-4.5-4.1 1.9-4.1 4.5zm24-2.6c1.4-2.2 3.5-3.4 6.1-3.4 3.6 0 5.5 2.4 5.5 5.9v7.4c0 1.1.2 1.6 1.4 1.6h2.1v1.6h-9.6v-1.6h1.9c1.1 0 1.4-.5 1.4-1.6v-7.7c0-2.4-.9-3.8-3.5-3.8-3.2 0-5.2 2.6-5.2 5.3v6.1c0 1.1.2 1.6 1.4 1.6h2.1v1.6h-9.9v-1.6h2.2c1.1 0 1.4-.5 1.4-1.6v-9.6c0-1.1-.2-1.6-1.4-1.6h-2.2v-1.6h6.5v3zm29.1 6.6c.5 3.2 3.1 5.4 6.4 5.4 2.1 0 3.6-1 3.6-2.7 0-4.4-11.5-1-11.5-8 0-3.4 3.1-4.7 6.1-4.7 1.9 0 3.9.7 5.3 1.9l.6-1.6h1.5v6.3h-1.6c-.4-3-3-5-5.8-5-1.5 0-3.2.5-3.2 2.7 0 4.1 11.5 1 11.5 7.7 0 3.6-3.2 5-6.4 5-2.1 0-4.2-.6-5.8-2.1l-.6 1.8h-1.8V55h1.7zm15-9.5c3.2-.4 3.8-3.9 4-6.7h1.8v6.7h4.9V47h-4.9v11.3c0 1.4.5 2 1.7 2 1.4 0 2.4-1.4 2.4-3.3v-2h1.6v1.5c0 3.3-1 5.5-4.6 5.5-3 0-4-2-4-3.9V47h-2.9v-1.6zm28.1 13.1c-1.4 2.2-3.5 3.4-6.1 3.4-3.6 0-5.5-1.6-5.5-5.4v-8c0-1.1-.2-1.6-1.4-1.6h-2.1v-1.6h6.3v10.8c0 2.4.9 3.8 3.5 3.8 3.2 0 5.2-2.6 5.2-5.3v-6.1c0-1.1-.2-1.6-1.4-1.6h-2.1v-1.6h6.4v12.8c0 1.1.2 1.6 1.4 1.6h2.2v1.6h-6.5v-2.8zm21.2-.2c-1.3 2.3-2.7 3.6-5.7 3.6-5.1 0-7.4-4.3-7.4-8.5s2.3-8.5 7.4-8.5c2.2 0 4.5 1.2 5.7 3.4h.1v-6c0-1.1-.4-1.9-1.6-1.9h-1.8v-1.6h6.3v19.8c0 .8.5 1.2 1.3 1.2h2v1.6h-6.2v-3.1zm-9.8-4.9c0 3.9 1.4 6.6 4.5 6.6 3.9 0 5.3-3.2 5.3-6.6s-1.4-6.6-4.9-6.6-4.9 3.2-4.9 6.6zm23.7 4.8c0 1.1.2 1.6 1.4 1.6h2.2v1.6h-10v-1.6h2.2c1.1 0 1.4-.5 1.4-1.6v-9.6c0-1.1-.2-1.6-1.4-1.6h-2.2v-1.6h6.5v12.8zm-1.9-16.1c-1 0-1.8-.8-1.8-1.8s.8-1.8 1.8-1.8 1.8.9 1.8 1.8c.1 1-.8 1.8-1.8 1.8zm24.5 11.3c0 4.9-3.3 8.5-8.8 8.5s-8.8-3.6-8.8-8.5 3.3-8.5 8.8-8.5 8.8 3.6 8.8 8.5zm-14.4 0c0 3.7 1.3 6.9 5.6 6.9s5.6-3.2 5.6-6.9-1.3-6.9-5.6-6.9-5.6 3.2-5.6 6.9z"/><path class="st0" d="M128.1 59.3l7.5 3.2v4.6l-7.5-3.3z"/><path class="st1" d="M50.8 56.4v8.9L98.2 86v-9z"/><path class="st0" d="M32.4 83.8c-4.7-2-8.9-4.8-12.4-8.4-3.6-3.6-6.4-7.8-8.4-12.4-2.1-4.9-3.1-10-3.1-15.3 0-5.3 1-10.4 3.1-15.3 2-4.7 4.8-8.9 8.4-12.4 3.6-3.6 7.8-6.4 12.4-8.4 4.8-2.1 10-3.1 15.3-3.1s10.4 1 15.3 3.1c4.7 2 8.9 4.8 12.4 8.4 3.6 3.6 6.4 7.8 8.4 12.4 2.1 4.9 3.1 10 3.1 15.3 0 5.3-1 10.4-3.1 15.3 0 .1-.1.2-.1.3 0 .1-.1.2-.1.3l-.3.4 7.8 3.4.3-.6c.1-.2.2-.4.2-.5 2.5-5.9 3.8-12.2 3.8-18.6 0-6.4-1.3-12.7-3.8-18.6-2.4-5.7-5.8-10.8-10.2-15.1C77 9.6 71.9 6.2 66.2 3.8 60.3 1.3 54.1 0 47.7 0S35 1.3 29.1 3.8C23.4 6.2 18.3 9.6 14 14c-4.4 4.4-7.8 9.5-10.2 15.1C1.3 35 0 41.3 0 47.7c0 6.4 1.3 12.7 3.8 18.6C6.2 71.9 9.6 77 14 81.4c4.4 4.4 9.5 7.8 15.1 10.2 4.7 2 9.7 3.2 14.8 3.6h.6v-8.5H44c-4-.4-7.9-1.4-11.6-2.9z"/><path class="st0" d="M23.3 47.7c0-13.4 10.9-24.4 24.4-24.4 6.5 0 12.6 2.5 17.2 7.2 4.6 4.6 7.2 10.7 7.2 17.2 0 3.4-.7 6.8-2.1 9.9l-.2.5 7.8 3.4.2-.5c1.9-4.2 2.8-8.7 2.8-13.3 0-8.8-3.4-17-9.6-23.2-6.2-6.2-14.5-9.6-23.2-9.6-18.1 0-32.9 14.7-32.9 32.9 0 16.7 12.5 30.8 29.1 32.7l.6.1v-8.5l-.5-.1c-11.9-2-20.8-12.3-20.8-24.3z"/><path class="st1" d="M50.8 80.4l40.6 17.8v-8.9L50.8 71.6zm0 14.8L84.6 110v-8.7L50.8 86.5z"/><path class="st0" d="M63.9 55.6l.2-.5c1.1-2.3 1.6-4.8 1.6-7.4 0-4.8-1.9-9.4-5.3-12.8-3.4-3.4-8-5.3-12.8-5.3-10 0-18.1 8.1-18.1 18.1 0 8.4 6 15.9 14.3 17.7l.7.1c-.1.1 0-8.8 0-8.8-3.8-1.3-6.4-4.9-6.4-9.1 0-5.3 4.3-9.6 9.6-9.6s9.6 4.3 9.6 9.6c0 1.6-.4 3.2-1.1 4.5l7.7 3.5z"/></svg>