<?xml version="1.0" encoding="UTF-8"?>
<svg width="307px" height="139px" viewBox="0 0 307 139" version="1.1" xmlns="http://www.w3.org/2000/svg" xmlns:xlink="http://www.w3.org/1999/xlink">
    <!-- Generator: Sketch 63.1 (92452) - https://sketch.com -->
    <title>3 copy 2</title>
    <desc>Created with Sketch.</desc>
    <defs>
        <filter x="-35.4%" y="-41.5%" width="170.9%" height="183.0%" filterUnits="objectBoundingBox" id="filter-1">
            <feOffset dx="0" dy="13" in="SourceAlpha" result="shadowOffsetOuter1"></feOffset>
            <feGaussianBlur stdDeviation="3" in="shadowOffsetOuter1" result="shadowBlurOuter1"></feGaussianBlur>
            <feColorMatrix values="0 0 0 0 0   0 0 0 0 0   0 0 0 0 0  0 0 0 0.0587576486 0" type="matrix" in="shadowBlurOuter1" result="shadowMatrixOuter1"></feColorMatrix>
            <feMerge>
                <feMergeNode in="shadowMatrixOuter1"></feMergeNode>
                <feMergeNode in="SourceGraphic"></feMergeNode>
            </feMerge>
        </filter>
        <linearGradient x1="1.24927026%" y1="20.1477002%" x2="62.7370249%" y2="36.1790035%" id="linearGradient-2">
            <stop stop-color="#0150F7" offset="0%"></stop>
            <stop stop-color="#4BAEFF" offset="100%"></stop>
        </linearGradient>
        <path d="M58.5488901,2.23746205 C60.347316,3.35266244 61.8634047,4.86875107 62.9786051,6.66717701 L100.312127,66.8730141 C104.305387,73.3127388 102.322136,81.7703444 95.8824116,85.7636051 C93.7110695,87.11005 91.2068984,87.8234521 88.6519737,87.8234521 L13.9849306,87.8234521 C6.40758379,87.8234521 0.264930561,81.6807989 0.264930561,74.1034521 C0.264930561,71.5485273 0.978332641,69.0443562 2.32477762,66.8730141 L39.6582992,6.66717701 C43.6515598,0.227452361 52.1091654,-1.75579858 58.5488901,2.23746205 Z M52.3969219,22.7739759 C51.2465426,22.061585 49.736469,22.4166448 49.0240782,23.5670241 L49.0240782,23.5670241 L20.3480159,69.8735544 C20.1080759,70.261013 19.9809618,70.707716 19.9809618,71.1634521 C19.9809618,72.5165497 21.0778642,73.6134521 22.4309618,73.6134521 L22.4309618,73.6134521 L79.7830865,73.6134521 C80.2388226,73.6134521 80.6855256,73.486338 81.0729842,73.2463981 C82.2233635,72.5340072 82.5784233,71.0239337 81.8660324,69.8735544 L81.8660324,69.8735544 L53.1899701,23.5670241 C52.9904964,23.244911 52.719035,22.9734496 52.3969219,22.7739759 Z" id="path-3"></path>
        <linearGradient x1="50%" y1="33.0685963%" x2="96.5508214%" y2="86.8403573%" id="linearGradient-5">
            <stop stop-color="#DD76FF" stop-opacity="0" offset="0%"></stop>
            <stop stop-color="#FFA9EC" offset="100%"></stop>
        </linearGradient>
        <path d="M58.5488901,2.23746205 C60.347316,3.35266244 61.8634047,4.86875107 62.9786051,6.66717701 L100.312127,66.8730141 C104.305387,73.3127388 102.322136,81.7703444 95.8824116,85.7636051 C93.7110695,87.11005 91.2068984,87.8234521 88.6519737,87.8234521 L13.9849306,87.8234521 C6.40758379,87.8234521 0.264930561,81.6807989 0.264930561,74.1034521 C0.264930561,71.5485273 0.978332641,69.0443562 2.32477762,66.8730141 L39.6582992,6.66717701 C43.6515598,0.227452361 52.1091654,-1.75579858 58.5488901,2.23746205 Z M52.3969219,22.7739759 C51.2465426,22.061585 49.736469,22.4166448 49.0240782,23.5670241 L49.0240782,23.5670241 L20.3480159,69.8735544 C20.1080759,70.261013 19.9809618,70.707716 19.9809618,71.1634521 C19.9809618,72.5165497 21.0778642,73.6134521 22.4309618,73.6134521 L22.4309618,73.6134521 L79.7830865,73.6134521 C80.2388226,73.6134521 80.6855256,73.486338 81.0729842,73.2463981 C82.2233635,72.5340072 82.5784233,71.0239337 81.8660324,69.8735544 L81.8660324,69.8735544 L53.1899701,23.5670241 C52.9904964,23.244911 52.719035,22.9734496 52.3969219,22.7739759 Z" id="path-6"></path>
        <linearGradient x1="91.6988252%" y1="8.76408979%" x2="33.1132378%" y2="33.3886758%" id="linearGradient-8">
            <stop stop-color="#FFFFFF" offset="0%"></stop>
            <stop stop-color="#FFFFFF" stop-opacity="0.257840806" offset="100%"></stop>
        </linearGradient>
        <linearGradient x1="91.7053694%" y1="8.76408979%" x2="33.1105877%" y2="33.3886758%" id="linearGradient-9">
            <stop stop-color="#FFFFFF" offset="0%"></stop>
            <stop stop-color="#FFFFFF" stop-opacity="0.257840806" offset="100%"></stop>
        </linearGradient>
        <path d="M3.103,122 L4.756,117.447 L13.891,117.447 L15.544,122 L18.415,122 L10.846,101.7 L7.801,101.7 L0.232,122 L3.103,122 Z M12.963,114.924 L5.684,114.924 L9.309,104.919 L12.963,114.924 Z M35.815,122.377 C37.845,122.377 39.5753333,121.6375 41.006,120.1585 C42.4366667,118.6795 43.152,116.876667 43.152,114.75 C43.152,112.623333 42.4366667,110.8205 41.006,109.3415 C39.5753333,107.8625 37.845,107.123 35.815,107.123 C33.4176667,107.123 31.5906667,108.08 30.334,109.994 L30.334,109.994 L30.334,101.7 L27.811,101.7 L27.811,122 L30.334,122 L30.334,119.506 C31.5906667,121.42 33.4176667,122.377 35.815,122.377 Z M35.496,119.941 C34.0266667,119.941 32.799,119.443167 31.813,118.4475 C30.827,117.451833 30.334,116.219333 30.334,114.75 C30.334,113.280667 30.827,112.048167 31.813,111.0525 C32.799,110.056833 34.0266667,109.559 35.496,109.559 C36.946,109.559 38.164,110.056833 39.15,111.0525 C40.136,112.048167 40.629,113.280667 40.629,114.75 C40.629,116.219333 40.136,117.451833 39.15,118.4475 C38.164,119.443167 36.946,119.941 35.496,119.941 Z M47.444,104.861 C47.908,104.861 48.3043333,104.696667 48.633,104.368 C48.9616667,104.039333 49.126,103.643 49.126,103.179 C49.126,102.715 48.9616667,102.313833 48.633,101.9755 C48.3043333,101.637167 47.908,101.468 47.444,101.468 C46.9606667,101.468 46.5546667,101.637167 46.226,101.9755 C45.8973333,102.313833 45.733,102.715 45.733,103.179 C45.733,103.643 45.8973333,104.039333 46.226,104.368 C46.5546667,104.696667 46.9606667,104.861 47.444,104.861 Z M48.691,122 L48.691,107.5 L46.168,107.5 L46.168,122 L48.691,122 Z M55.593,121.4635 C56.6176667,122.111167 58.232,122.29 60.436,122 L60.436,122 L60.436,119.738 C59.5853333,119.776667 58.87,119.791167 58.29,119.7815 C57.71,119.771833 57.2798333,119.617167 56.9995,119.3175 C56.7191667,119.017833 56.579,118.510333 56.579,117.795 L56.579,117.795 L56.579,109.936 L60.436,109.936 L60.436,107.5 L56.579,107.5 L56.579,103.44 L54.056,104.194 L54.056,107.5 L51.185,107.5 L51.185,109.936 L54.056,109.936 L54.056,117.795 C54.056,119.593 54.5683333,120.815833 55.593,121.4635 Z M77.575,122.377 C79.7016667,122.377 81.5093333,121.642333 82.998,120.173 C84.4866667,118.703667 85.231,116.896 85.231,114.75 C85.231,112.604 84.4866667,110.796333 82.998,109.327 C81.5093333,107.857667 79.7016667,107.123 77.575,107.123 C75.4483333,107.123 73.6455,107.857667 72.1665,109.327 C70.6875,110.796333 69.948,112.604 69.948,114.75 C69.948,116.896 70.6875,118.703667 72.1665,120.173 C73.6455,121.642333 75.4483333,122.377 77.575,122.377 Z M77.575,119.912 C76.1443333,119.912 74.936,119.419 73.95,118.433 C72.964,117.447 72.471,116.219333 72.471,114.75 C72.471,113.280667 72.964,112.053 73.95,111.067 C74.936,110.081 76.1443333,109.588 77.575,109.588 C79.025,109.588 80.243,110.081 81.229,111.067 C82.215,112.053 82.708,113.280667 82.708,114.75 C82.708,116.219333 82.215,117.447 81.229,118.433 C80.243,119.419 79.025,119.912 77.575,119.912 Z M91.843,122 L91.843,109.936 L95.671,109.936 L95.671,107.5 L91.843,107.5 L91.843,107.065 C91.843,104.648333 93.119,103.546333 95.671,103.759 L95.671,103.759 L95.671,101.323 C93.6216667,101.187667 92.0508333,101.622667 90.9585,102.628 C89.8661667,103.633333 89.32,105.112333 89.32,107.065 L89.32,107.065 L89.32,107.5 L87,107.5 L87,109.936 L89.32,109.936 L89.32,122 L91.843,122 Z M13.072,162.202 C16.2253333,162.202 18.9056667,161.334833 21.113,159.6005 C23.3203333,157.866167 24.424,155.307667 24.424,151.925 L24.424,151.925 L24.424,131.5 L18.146,131.5 L18.146,133.693 C16.6553333,131.829667 14.5626667,130.898 11.868,130.898 C8.858,130.898 6.3425,131.965833 4.3215,134.1015 C2.3005,136.237167 1.29,138.81 1.29,141.82 C1.29,144.83 2.3005,147.402833 4.3215,149.5385 C6.3425,151.674167 8.858,152.742 11.868,152.742 C14.5626667,152.742 16.6553333,151.810333 18.146,149.947 L18.146,149.947 L18.146,151.925 C18.146,153.415667 17.716,154.555167 16.856,155.3435 C15.996,156.131833 14.8063333,156.526 13.287,156.526 C10.9936667,156.526 9.35966667,155.623 8.385,153.817 L8.385,153.817 L2.881,156.999 C4.83033333,160.467667 8.22733333,162.202 13.072,162.202 Z M12.943,146.808 C11.4236667,146.808 10.1766667,146.349333 9.202,145.432 C8.22733333,144.514667 7.74,143.310667 7.74,141.82 C7.74,140.329333 8.22733333,139.125333 9.202,138.208 C10.1766667,137.290667 11.4236667,136.832 12.943,136.832 C14.4623333,136.832 15.7093333,137.290667 16.684,138.208 C17.6586667,139.125333 18.146,140.329333 18.146,141.82 C18.146,143.310667 17.6586667,144.514667 16.684,145.432 C15.7093333,146.349333 14.4623333,146.808 12.943,146.808 Z M39.474,153.602 C42.656,153.602 45.3506667,152.512667 47.558,150.334 C49.7653333,148.126667 50.869,145.432 50.869,142.25 C50.869,139.068 49.7653333,136.3805 47.558,134.1875 C45.3506667,131.9945 42.656,130.898 39.474,130.898 C36.292,130.898 33.5973333,131.9945 31.39,134.1875 C29.1826667,136.3805 28.079,139.068 28.079,142.25 C28.079,145.432 29.1826667,148.1195 31.39,150.3125 C33.5973333,152.5055 36.292,153.602 39.474,153.602 Z M39.474,147.324 C38.0693333,147.324 36.894,146.851 35.948,145.905 C35.002,144.959 34.529,143.740667 34.529,142.25 C34.529,140.759333 35.002,139.541 35.948,138.595 C36.894,137.649 38.0693333,137.176 39.474,137.176 C40.8786667,137.176 42.054,137.649 43,138.595 C43.946,139.541 44.419,140.759333 44.419,142.25 C44.419,143.740667 43.946,144.959 43,145.905 C42.054,146.851 40.8786667,147.324 39.474,147.324 Z M64.844,153.602 C68.026,153.602 70.7206667,152.512667 72.928,150.334 C75.1353333,148.126667 76.239,145.432 76.239,142.25 C76.239,139.068 75.1353333,136.3805 72.928,134.1875 C70.7206667,131.9945 68.026,130.898 64.844,130.898 C61.662,130.898 58.9673333,131.9945 56.76,134.1875 C54.5526667,136.3805 53.449,139.068 53.449,142.25 C53.449,145.432 54.5526667,148.1195 56.76,150.3125 C58.9673333,152.5055 61.662,153.602 64.844,153.602 Z M64.844,147.324 C63.4393333,147.324 62.264,146.851 61.318,145.905 C60.372,144.959 59.899,143.740667 59.899,142.25 C59.899,140.759333 60.372,139.541 61.318,138.595 C62.264,137.649 63.4393333,137.176 64.844,137.176 C66.2486667,137.176 67.424,137.649 68.37,138.595 C69.316,139.541 69.789,140.759333 69.789,142.25 C69.789,143.740667 69.316,144.959 68.37,145.905 C67.424,146.851 66.2486667,147.324 64.844,147.324 Z M89.096,153.602 C91.848,153.602 93.9836667,152.727667 95.503,150.979 L95.503,150.979 L95.503,153 L101.953,153 L101.953,122.9 L95.503,122.9 L95.503,133.521 C93.9836667,131.772333 91.848,130.898 89.096,130.898 C86.258,130.898 83.8356667,131.9945 81.829,134.1875 C79.8223333,136.3805 78.819,139.068 78.819,142.25 C78.819,145.432 79.8223333,148.1195 81.829,150.3125 C83.8356667,152.5055 86.258,153.602 89.096,153.602 Z M90.386,147.496 C88.8666667,147.496 87.634,147.023 86.688,146.077 C85.742,145.131 85.269,143.855333 85.269,142.25 C85.269,140.644667 85.742,139.369 86.688,138.423 C87.634,137.477 88.8666667,137.004 90.386,137.004 C91.9053333,137.004 93.138,137.477 94.084,138.423 C95.03,139.369 95.503,140.644667 95.503,142.25 C95.503,143.855333 95.03,145.131 94.084,146.077 C93.138,147.023 91.9053333,147.496 90.386,147.496 Z M113.133,153 L113.133,141.261 C113.133,139.799 113.491333,138.695333 114.208,137.95 C114.924667,137.204667 115.899333,136.832 117.132,136.832 C118.221333,136.832 119.117167,137.168833 119.8195,137.8425 C120.521833,138.516167 120.873,139.483667 120.873,140.745 L120.873,140.745 L120.873,153 L127.323,153 L127.323,139.799 C127.323,137.018333 126.556167,134.839667 125.0225,133.263 C123.488833,131.686333 121.575333,130.898 119.282,130.898 C116.472667,130.898 114.423,131.772333 113.133,133.521 L113.133,133.521 L113.133,131.5 L106.683,131.5 L106.683,153 L113.133,153 Z M142.588,153.602 C146.716,153.602 149.840667,152.125667 151.962,149.173 L151.962,149.173 L146.802,146.206 C145.798667,147.295333 144.422667,147.84 142.674,147.84 C139.979333,147.84 138.259333,146.836667 137.514,144.83 L137.514,144.83 L152.779,144.83 C152.951,144.027333 153.037,143.167333 153.037,142.25 C153.037,139.010667 151.997833,136.308833 149.9195,134.1445 C147.841167,131.980167 145.239667,130.898 142.115,130.898 C138.761,130.898 136.016167,131.980167 133.8805,134.1445 C131.744833,136.308833 130.677,139.010667 130.677,142.25 C130.677,145.518 131.759167,148.227 133.9235,150.377 C136.087833,152.527 138.976,153.602 142.588,153.602 Z M146.63,140.014 L137.385,140.014 C138.015667,137.749333 139.578,136.617 142.072,136.617 C144.48,136.617 145.999333,137.749333 146.63,140.014 L146.63,140.014 Z M164.432,153.602 C166.954667,153.602 169.076,153.007167 170.796,151.8175 C172.516,150.627833 173.376,148.872 173.376,146.55 C173.376,145.059333 173.0105,143.8195 172.2795,142.8305 C171.5485,141.8415 170.667,141.132 169.635,140.702 C168.603,140.272 167.571,139.920833 166.539,139.6485 C165.507,139.376167 164.6255,139.103833 163.8945,138.8315 C163.1635,138.559167 162.798,138.208 162.798,137.778 C162.798,136.975333 163.4,136.574 164.604,136.574 C165.836667,136.574 166.797,137.204667 167.485,138.466 L167.485,138.466 L172.989,135.499 C172.100333,134.008333 170.925,132.868833 169.463,132.0805 C168.001,131.292167 166.381333,130.898 164.604,130.898 C162.224667,130.898 160.225167,131.514333 158.6055,132.747 C156.985833,133.979667 156.176,135.714 156.176,137.95 C156.176,139.326 156.5415,140.487 157.2725,141.433 C158.0035,142.379 158.885,143.074167 159.917,143.5185 C160.949,143.962833 161.981,144.321167 163.013,144.5935 C164.045,144.865833 164.9265,145.145333 165.6575,145.432 C166.3885,145.718667 166.754,146.077 166.754,146.507 C166.754,147.395667 165.98,147.84 164.432,147.84 C162.568667,147.84 161.350333,146.994333 160.777,145.303 L160.777,145.303 L155.187,148.485 C156.821,151.896333 159.902667,153.602 164.432,153.602 Z M184.556,153.602 C187.078667,153.602 189.2,153.007167 190.92,151.8175 C192.64,150.627833 193.5,148.872 193.5,146.55 C193.5,145.059333 193.1345,143.8195 192.4035,142.8305 C191.6725,141.8415 190.791,141.132 189.759,140.702 C188.727,140.272 187.695,139.920833 186.663,139.6485 C185.631,139.376167 184.7495,139.103833 184.0185,138.8315 C183.2875,138.559167 182.922,138.208 182.922,137.778 C182.922,136.975333 183.524,136.574 184.728,136.574 C185.960667,136.574 186.921,137.204667 187.609,138.466 L187.609,138.466 L193.113,135.499 C192.224333,134.008333 191.049,132.868833 189.587,132.0805 C188.125,131.292167 186.505333,130.898 184.728,130.898 C182.348667,130.898 180.349167,131.514333 178.7295,132.747 C177.109833,133.979667 176.3,135.714 176.3,137.95 C176.3,139.326 176.6655,140.487 177.3965,141.433 C178.1275,142.379 179.009,143.074167 180.041,143.5185 C181.073,143.962833 182.105,144.321167 183.137,144.5935 C184.169,144.865833 185.0505,145.145333 185.7815,145.432 C186.5125,145.718667 186.878,146.077 186.878,146.507 C186.878,147.395667 186.104,147.84 184.556,147.84 C182.692667,147.84 181.474333,146.994333 180.901,145.303 L180.901,145.303 L175.311,148.485 C176.945,151.896333 180.026667,153.602 184.556,153.602 Z" id="path-10"></path>
    </defs>
    <g id="Page-1" stroke="none" stroke-width="1" fill="none" fill-rule="evenodd">
        <g id="Artboard-Copy-2" transform="translate(-30.000000, -311.000000)">
            <g id="3-copy-2" transform="translate(15.000000, 257.000000)">
                <g id="Group-2" transform="translate(111.848538, 114.139733) rotate(296.000000) translate(-111.848538, -114.139733) translate(42.848538, 23.639733)">
                    <g id="Oval-Copy-3" transform="translate(0.000000, 42.630000)" stroke="#CFCECE" stroke-dasharray="2.45,4.899999999999999" stroke-width="0.98">
                        <path d="M68.7535673,137.503439 C106.640301,137.503439 137.353567,106.790173 137.353567,68.9034389 C137.353567,31.016705 106.640301,0.303438869 68.7535673,0.303438869 C30.8668335,0.303438869 0.153567295,31.016705 0.153567295,68.9034389 C0.153567295,106.790173 30.8668335,137.503439 68.7535673,137.503439 Z" id="Oval-Copy"></path>
                    </g>
                    <g id="Rectangle-Copy" filter="url(#filter-1)">
                        <mask id="mask-4" fill="white">
                            <use xlink:href="#path-3"></use>
                        </mask>
                        <use id="Mask" fill="url(#linearGradient-2)" xlink:href="#path-3"></use>
                        <mask id="mask-7" fill="white">
                            <use xlink:href="#path-6"></use>
                        </mask>
                        <use id="Mask" fill="url(#linearGradient-5)" xlink:href="#path-6"></use>
                        <rect id="Rectangle" fill="url(#linearGradient-8)" opacity="0.312453497" mask="url(#mask-7)" transform="translate(70.434078, 92.154640) rotate(-57.000000) translate(-70.434078, -92.154640) " x="16.2890785" y="32.8646397" width="108.29" height="118.58" rx="8.82"></rect>
                        <rect id="Rectangle" fill="url(#linearGradient-9)" opacity="0.312453497" mask="url(#mask-7)" transform="translate(64.680000, 75.215000) rotate(-57.000000) translate(-64.680000, -75.215000) " x="25.97" y="32.83" width="77.42" height="84.77" rx="2.94"></rect>
                    </g>
                </g>
                <g id="кошелек-2" transform="translate(128.000000, 0.000000)">
                    <mask id="mask-11" fill="white">
                        <use xlink:href="#path-10"></use>
                    </mask>
                    <use id="Abitofgoodness" fill="#3C3C3C" fill-rule="nonzero" xlink:href="#path-10"></use>
                    <ellipse id="Oval" fill-opacity="0.279556381" fill="#FFFFFF" mask="url(#mask-11)" cx="132.175" cy="76.44" rx="77.175" ry="76.44"></ellipse>
                </g>
            </g>
        </g>
    </g>
</svg>